PathFileType  4	(X/Y/Z) C:\Users\antoi\Documents\MyRepositories\mobilecap\ResultsAnalysis
DataRate	CameraRate	NumFrames	NumMarkers	Units	OrigDataRate	OrigDataStartFrame	OrigNumFrames
100.0	100.0	4	51	mm	100.0	70	278
Frame#	Time	r_knee			r_shank_antsup			r_ankle			r_calc			r_5meta			r_toe			L_knee			L_shank_antsup			L_ankle			L_calc			L_5meta			L_toe			r_sh2			r_sh3			r_sh4			L_sh2			L_sh3			r_thigh1			r_thigh2			r_thigh3			r_thigh4			r_thigh5			L_thigh1			L_thigh2			L_thigh3			L_thigh4			r.ASIS			r.PSIS			L.ASIS			L.PSIS			C7			R_Shoulder			L_Shoulder			R_Sternum			L_Sternum			R_humerus			R_elbow_med			R_elbow_lat			R_forearm			R_wrist_radius			R_wrist_ulna			L_humerus			L_elbow_med			L_elbow_lat			L_forearm			L_wrist_radius			L_wrist_ulna			R_HJC			L_HJC			R_HJC_reg			L_HJC_reg			
		X1	Y1	Z1	X2	Y2	Z2	X3	Y3	Z3	X4	Y4	Z4	X5	Y5	Z5	X6	Y6	Z6	X7	Y7	Z7	X8	Y8	Z8	X9	Y9	Z9	X10	Y10	Z10	X11	Y11	Z11	X12	Y12	Z12	X13	Y13	Z13	X14	Y14	Z14	X15	Y15	Z15	X16	Y16	Z16	X17	Y17	Z17	X18	Y18	Z18	X19	Y19	Z19	X20	Y20	Z20	X21	Y21	Z21	X22	Y22	Z22	X23	Y23	Z23	X24	Y24	Z24	X25	Y25	Z25	X26	Y26	Z26	X27	Y27	Z27	X28	Y28	Z28	X29	Y29	Z29	X30	Y30	Z30	X31	Y31	Z31	X32	Y32	Z32	X33	Y33	Z33	X34	Y34	Z34	X35	Y35	Z35	X36	Y36	Z36	X37	Y37	Z37	X38	Y38	Z38	X39	Y39	Z39	X40	Y40	Z40	X41	Y41	Z41	X42	Y42	Z42	X43	Y43	Z43	X44	Y44	Z44	X45	Y45	Z45	X46	Y46	Z46	X47	Y47	Z47	X48	Y48	Z48	X49	Y49	Z49	X50	Y50	Z50	X51	Y51	Z51	

70	0.69000000	-1077.44596	732.96112	-419.47146	-1071.59277	611.28616	-440.20701	-1250.06155	396.23090	-455.60692	-1307.62520	358.51466	-499.82443	-1144.49763	347.89961	-419.49385	-1109.22175	364.98843	-464.16578	-1074.32170	742.27129	-736.18464	-1057.92229	625.50044	-695.30892	-1250.48190	400.71086	-716.63558	-1304.13415	366.20687	-683.18015	-1137.91620	346.67054	-740.14157	-1100.10622	363.40554	-684.68550	-1130.41320	516.08936	-454.03111	-1120.59594	632.57475	-385.17407	-1190.97071	548.01392	-404.86249	-1098.05956	669.47303	-763.08346	-1159.72554	564.54041	-774.53923	-1119.02134	1037.22678	-399.77704	-1070.31540	941.66034	-402.85866	-1100.62736	894.92535	-365.64039	-1211.82621	987.49400	-363.09759	-1156.11189	886.07130	-365.15778	-1141.97965	1028.16669	-747.99413	-1065.39832	912.65206	-749.50658	-1239.08215	975.51586	-764.67873	-1160.20952	856.75229	-760.43534	-1106.89410	1111.03572	-446.30246	-1240.31544	1246.42890	-506.41186	-1117.13478	1108.12932	-686.71906	-1246.42555	1249.35523	-622.61384	-952.47170	1593.22962	-561.09679	-904.21368	1530.07921	-410.15341	-906.43450	1538.78138	-719.46805	-865.61105	1485.17405	-542.65943	-866.99081	1482.83964	-585.91716	-964.81747	1417.08671	-343.08386	-1155.21465	1329.95726	-385.45966	-1129.44869	1315.87190	-315.34769	-1191.67468	1209.75633	-286.86860	-1260.56094	1133.07944	-275.85135	-1279.53810	1159.52631	-254.70634	-984.94760	1411.71882	-789.03345	-1160.36582	1317.76883	-731.25952	-1144.95600	1322.21049	-806.21969	-1184.41729	1240.74990	-844.05146	-1268.43061	1136.91072	-855.76935	-1286.81173	1159.01579	-872.40303	-1222.75352	1100.52675	-464.74338	-1228.99814	1093.88390	-653.90131	-1205.73381	1089.35709	-475.23081	-1214.07210	1093.35149	-633.79130	
71	0.70000000	-1073.68889	731.05121	-419.27532	-1068.70626	609.20427	-440.34626	-1249.54551	396.39786	-455.51349	-1307.57864	358.56470	-499.77027	-1144.45480	347.70767	-419.43330	-1109.14765	364.79903	-464.13076	-1069.73012	740.43805	-735.95725	-1054.74453	623.51268	-695.32200	-1249.86924	401.26596	-716.43084	-1303.86192	367.04519	-683.18746	-1137.82525	346.70211	-740.01313	-1099.84952	363.10938	-684.64379	-1128.52839	514.50046	-454.17836	-1117.37574	631.00418	-385.24111	-1189.39205	548.02545	-404.41972	-1093.90377	667.80667	-762.50926	-1156.81832	563.92950	-774.48034	-1116.73099	1034.85214	-399.82952	-1065.58290	940.52383	-402.83115	-1097.55309	892.76873	-365.29309	-1209.04653	984.79933	-362.77048	-1153.01291	883.78103	-364.74894	-1139.14876	1025.58116	-747.42132	-1061.64425	911.05161	-749.15582	-1235.70831	972.71231	-764.72291	-1156.15024	854.39621	-760.12015	-1104.59656	1107.97109	-446.16807	-1237.57741	1243.59756	-506.30364	-1114.66521	1104.67756	-686.61362	-1243.55100	1246.21153	-622.66808	-948.91677	1588.86192	-560.74427	-900.55963	1525.00825	-409.95817	-903.05642	1533.60562	-719.44121	-861.85810	1480.69624	-542.42948	-863.30309	1478.46497	-585.91966	-958.73681	1410.10468	-344.40293	-1147.74387	1318.56428	-383.52800	-1120.32736	1304.29462	-314.88879	-1179.02643	1196.24574	-286.42329	-1244.88527	1116.73664	-275.46750	-1264.97723	1142.92444	-254.28882	-978.07536	1403.93346	-787.82064	-1151.65527	1305.11788	-732.63169	-1135.14928	1309.21422	-806.45698	-1171.69208	1226.15919	-843.52895	-1252.11700	1120.81246	-854.89073	-1271.58147	1140.67684	-871.53823	-1220.38982	1097.65715	-464.57494	-1226.59238	1090.76929	-653.72660	-1203.50679	1086.60491	-475.15489	-1211.64835	1090.16750	-633.75301	
72	0.71000000	-1069.79932	728.99903	-419.08284	-1065.71699	607.08487	-440.41189	-1249.26836	396.42722	-455.60894	-1307.50148	358.62771	-499.69589	-1144.41200	347.55626	-419.30201	-1109.07403	364.61970	-464.07360	-1064.92933	738.44241	-735.46330	-1051.12214	621.35197	-695.02397	-1249.18837	401.92624	-716.43163	-1303.56410	367.94531	-683.21502	-1137.70853	346.68821	-739.83452	-1099.62622	362.78023	-684.49901	-1126.60017	513.07620	-454.33978	-1114.01468	629.38763	-385.22826	-1187.27738	547.31761	-404.13413	-1089.50650	666.18658	-762.19892	-1153.89667	563.17358	-774.11947	-1114.18245	1032.39759	-399.69368	-1061.50475	939.02768	-402.59718	-1094.29758	890.48623	-364.94398	-1206.37890	981.77448	-362.94323	-1149.77319	881.29749	-364.69983	-1136.10792	1022.87404	-746.82911	-1057.70971	909.26462	-748.83824	-1232.41358	969.18116	-764.01537	-1151.96284	851.92183	-759.84026	-1102.73878	1104.84852	-446.08883	-1234.75070	1240.68774	-506.30610	-1111.97028	1101.25998	-686.71597	-1240.62089	1243.10192	-622.71464	-945.78679	1584.88975	-560.31953	-897.28692	1520.23215	-409.79550	-899.91728	1528.68257	-719.49849	-858.43069	1476.56378	-542.36362	-859.79462	1474.52173	-586.00298	-952.67702	1403.67579	-345.70967	-1139.25385	1306.42148	-382.20508	-1110.49482	1292.50986	-314.34148	-1164.96601	1182.44432	-285.78529	-1227.28012	1099.63480	-275.12817	-1248.85978	1124.96276	-254.31871	-971.16844	1396.42392	-786.81249	-1142.21070	1292.09855	-733.71889	-1124.45903	1295.86189	-806.74609	-1157.65111	1211.10565	-842.88577	-1234.24657	1102.02911	-854.43002	-1254.39397	1121.40051	-870.69647	-1218.26059	1094.69558	-464.65944	-1224.10873	1087.76594	-653.82025	-1201.38667	1083.88235	-475.15464	-1209.38976	1087.17335	-633.86767	
73	0.72000000	-1065.79239	726.76186	-418.95842	-1062.61863	604.90921	-440.42076	-1248.92203	396.42499	-455.84831	-1307.39216	358.70620	-499.52574	-1144.37845	347.48944	-419.13072	-1108.98089	364.42625	-464.04057	-1059.87444	736.32582	-734.95697	-1047.25178	619.12313	-694.48938	-1248.43196	402.51216	-716.30954	-1303.25312	368.94624	-683.26808	-1137.53405	346.64490	-739.67842	-1099.35417	362.45326	-684.30981	-1124.62818	511.69133	-454.56272	-1110.61251	627.72089	-385.10105	-1184.90820	546.63703	-404.16072	-1085.05493	664.58929	-762.19779	-1150.87209	562.30862	-773.74115	-1111.16117	1029.89503	-399.33466	-1059.66210	936.23301	-402.05931	-1090.89498	888.06010	-364.78688	-1203.52791	978.53078	-363.27999	-1146.35531	878.55425	-364.81290	-1132.78377	1020.33969	-746.39954	-1053.53130	907.20443	-748.42047	-1228.99148	965.58648	-762.95372	-1147.43031	849.34027	-759.61415	-1101.30067	1101.12092	-445.97460	-1231.80270	1237.67704	-506.21080	-1109.19741	1097.82470	-686.11620	-1237.63406	1240.00512	-622.61536	-942.87698	1581.31427	-560.07043	-894.40243	1515.91488	-409.71592	-897.03500	1524.03759	-719.54541	-855.38207	1472.93907	-542.33913	-856.55193	1470.94398	-585.89239	-946.68676	1397.89044	-347.09361	-1130.03709	1293.53537	-381.19862	-1099.85183	1280.68030	-313.70653	-1149.13897	1168.52573	-285.01081	-1207.46636	1082.28590	-274.69752	-1230.64264	1106.05079	-254.59919	-964.14419	1389.27478	-785.68612	-1131.79847	1278.75025	-734.53449	-1112.82165	1282.31921	-807.03650	-1142.07587	1195.78326	-842.36415	-1214.29312	1082.42264	-854.00459	-1234.62647	1102.07658	-870.63757	-1216.54412	1091.50678	-464.71249	-1221.64234	1084.81544	-653.90134	-1199.30725	1081.29054	-474.97424	-1207.24064	1084.45902	-633.34044	
